<svg width="377" height="49" viewBox="0 0 377 49" fill="none" xmlns="http://www.w3.org/2000/svg">
<g clip-path="url(#clip0_13_16)">
<path d="M2.08801 34V8.79999H13.248V25.648H46.728V34H2.08801ZM48.8332 34V25.648H65.5732V17.152H48.8332V8.79999H93.4732V17.152H76.7332V25.648H93.4732V34H48.8332ZM97.1153 34V8.79999H108.131L130.595 22.696V8.79999H141.755V34H130.739L108.275 20.104V34H97.1153ZM145.947 34V8.79999H157.107V18.952L173.199 8.79999H189.507L172.083 19.492L190.587 34H175.215L163.623 24.568L157.107 28.564V34H145.947ZM190.864 34V25.648H207.604V17.152H190.864V8.79999H235.504V17.152H218.764V25.648H235.504V34H190.864ZM239.147 34V8.79999H283.787V17.152H250.307V20.104H279.899V27.736H250.307V34H239.147ZM301.08 34V24.928L284.34 8.79999H298.272L306.66 17.116L315.048 8.79999H328.98L312.24 24.928V34H301.08Z" fill="#FFA239"/>
<path d="M294.87 50V39.5H309.825C310.905 39.5 311.725 39.745 312.285 40.235C312.855 40.715 313.14 41.36 313.14 42.17C313.14 42.81 312.945 43.33 312.555 43.73C312.165 44.13 311.555 44.405 310.725 44.555V44.855C311.615 44.935 312.295 45.19 312.765 45.62C313.235 46.04 313.47 46.605 313.47 47.315C313.47 48.115 313.185 48.765 312.615 49.265C312.055 49.755 311.285 50 310.305 50H294.87ZM299.52 43.595H307.755C307.945 43.595 308.095 43.54 308.205 43.43C308.315 43.32 308.37 43.175 308.37 42.995C308.37 42.805 308.31 42.66 308.19 42.56C308.08 42.45 307.935 42.395 307.755 42.395H299.52V43.595ZM299.52 47.105H307.995C308.185 47.105 308.335 47.05 308.445 46.94C308.555 46.83 308.61 46.685 308.61 46.505C308.61 46.315 308.55 46.17 308.43 46.07C308.32 45.96 308.175 45.905 307.995 45.905H299.52V47.105ZM314.704 50V39.5H333.304V42.53H319.354V43.46H331.684V46.04H319.354V46.97H333.304V50H314.704ZM341.088 50V42.98H334.113V39.5H352.713V42.98H345.738V50H341.088ZM349.677 50L356.232 39.5H361.737L368.277 50H363.282L362.382 48.365H355.617L354.672 50H349.677ZM357.612 44.885L357.102 45.785H360.957L360.462 44.885L359.217 42.335H358.917L357.612 44.885Z" fill="black"/>
</g>
<defs>
<clipPath id="clip0_13_16">
<rect width="377" height="49" fill="white"/>
</clipPath>
</defs>
</svg>
